HIERARCHY
ROOT Hips
{
    OFFSET 0.000000 0.000000 0.000000
    CHANNELS 6 Xposition Yposition Zposition Zrotation Xrotation Yrotation
    JOINT Spine
    {
        OFFSET -0.000000 7.795402 0.000000
        CHANNELS 3 Zrotation Xrotation Yrotation
        JOINT Spine1
        {
            OFFSET -0.000000 20.648252 0.000000
            CHANNELS 3 Zrotation Xrotation Yrotation
            JOINT Neck
            {
                OFFSET -0.000000 20.563454 1.869405
                CHANNELS 3 Zrotation Xrotation Yrotation
                JOINT Head
                {
                    OFFSET -0.000000 13.309221 -1.901317
                    CHANNELS 3 Zrotation Xrotation Yrotation
                    End Site
                    {
                        OFFSET -0.000000 23.766466 0.000000
                    }
                }
            }
            JOINT LeftShoulder
            {
                OFFSET 3.798743 19.114376 -0.113875
                CHANNELS 3 Zrotation Xrotation Yrotation
                JOINT LeftArm
                {
                    OFFSET 9.772051 0.000000 0.000000
                    CHANNELS 3 Zrotation Xrotation Yrotation
                    JOINT LeftForeArm
                    {
                        OFFSET 36.651028 0.000000 0.000000
                        CHANNELS 3 Zrotation Xrotation Yrotation
                        JOINT LeftHand
                        {
                            OFFSET 25.694054 0.000000 0.000000
                            CHANNELS 3 Zrotation Xrotation Yrotation
                            End Site
                            {
                                OFFSET 14.259881 0.000000 0.000000
                            }
                        }
                    }
                }
            }
            JOINT RightShoulder
            {
                OFFSET -3.780769 19.114376 -0.113875
                CHANNELS 3 Zrotation Xrotation Yrotation
                JOINT RightArm
                {
                    OFFSET -9.772051 0.000000 0.000000
                    CHANNELS 3 Zrotation Xrotation Yrotation
                    JOINT RightForeArm
                    {
                        OFFSET -36.651028 0.000000 0.000000
                        CHANNELS 3 Zrotation Xrotation Yrotation
                        JOINT RightHand
                        {
                            OFFSET -25.694054 0.000000 0.000000
                            CHANNELS 3 Zrotation Xrotation Yrotation
                            End Site
                            {
                                OFFSET -14.259881 0.000000 0.000000
                            }
                        }
                    }
                }
            }
        }
    }
    JOINT LeftUpLeg
    {
        OFFSET 9.506587 0.000000 0.000000
        CHANNELS 3 Zrotation Xrotation Yrotation
        JOINT LeftLeg
        {
            OFFSET -0.000000 -42.556026 0.000000
            CHANNELS 3 Zrotation Xrotation Yrotation
            JOINT LeftFoot
            {
                OFFSET -0.000000 -42.739758 0.000000
                CHANNELS 3 Zrotation Xrotation Yrotation
                JOINT LeftToeBase
                {
                    OFFSET -0.000000 -6.179281 14.259881
                    CHANNELS 3 Zrotation Xrotation Yrotation
                    End Site
                    {
                        OFFSET -0.000000 0.000000 3.802635
                    }
                }
            }
        }
    }
    JOINT RightUpLeg
    {
        OFFSET -9.506587 0.000000 0.000000
        CHANNELS 3 Zrotation Xrotation Yrotation
        JOINT RightLeg
        {
            OFFSET -0.000000 -42.556026 0.000000
            CHANNELS 3 Zrotation Xrotation Yrotation
            JOINT RightFoot
            {
                OFFSET -0.000000 -42.739758 0.000000
                CHANNELS 3 Zrotation Xrotation Yrotation
                JOINT RightToeBase
                {
                    OFFSET -0.000000 -6.179281 14.259881
                    CHANNELS 3 Zrotation Xrotation Yrotation
                    End Site
                    {
                        OFFSET -0.000000 0.000000 3.802635
                    }
                }
            }
        }
    }
}
MOTION
Frames:    12
Frame Time:    0.008333
-12.261683    92.733421    22.581335    1.228284    0.514582    89.066559    -1.615270    -2.681146    0.983297    0.064496    -0.270262    1.021220    10.800047    12.526981    1.806975    -4.047075    0.047881    0.925229    17.533800    -0.325090    3.629599    -17.248068    0.060593    -7.799386    -0.248947    -1.830085    -1.904745    11.749125    -2.468077    -6.158381    -12.878102    -0.861963    9.118043    15.430999    0.175907    -6.398666    0.065089    0.556357    0.575185    4.987070    0.718309    3.726330    4.883434    3.771669    -2.124576    -2.789971    2.414121    -0.081488    -2.640979    -5.600157    22.992867    0.000000    0.000000    0.000000    -7.663430    0.458839    1.209159    3.648075    7.063587    -1.897180    4.982611    -7.342951    -15.517568    0.000000    0.000000    0.000000    
-12.260708    92.733002    22.584892    1.234060    0.517628    89.066933    -1.629380    -2.683571    0.985086    0.084594    -0.264004    1.023502    10.776370    12.529349    1.801601    -4.038214    0.031042    0.921368    17.515095    -0.325341    3.634192    -17.259226    -0.031582    -7.817752    -0.206557    -1.736358    -1.834578    11.484652    -2.379220    -6.357069    -12.891436    -0.855416    9.114147    15.430404    0.153783    -6.388202    0.065170    0.590169    0.571688    5.068613    0.756411    3.761831    4.881317    3.774385    -2.126533    -2.790740    2.423764    -0.075051    -2.651545    -5.606157    22.996286    0.000000    0.000000    0.000000    -7.662416    0.468617    1.218407    3.650244    7.055953    -1.914867    4.964779    -7.345386    -15.524841    0.000000    0.000000    0.000000    
-12.261097    92.734184    22.585455    1.233388    0.518622    89.068878    -1.642181    -2.682391    0.994133    0.102639    -0.288992    1.032828    10.803022    12.547469    1.802108    -4.076114    0.026035    0.917204    17.500767    -0.319415    3.596137    -17.272022    -0.074244    -7.809680    -0.197458    -1.744829    -1.825128    11.250961    -2.382286    -6.436561    -12.890666    -0.852472    9.111824    15.437658    0.182742    -6.395614    0.059974    0.571865    0.576465    5.034285    0.735271    3.723652    4.883932    3.773541    -2.133823    -2.797750    2.428157    -0.081280    -2.623610    -5.606189    23.004072    0.000000    0.000000    0.000000    -7.665509    0.468052    1.233072    3.652458    7.058533    -1.865537    4.958354    -7.344454    -15.582792    0.000000    0.000000    0.000000    
-12.258609    92.734299    22.587637    1.241677    0.519378    89.068855    -1.624012    -2.668988    0.996264    0.051142    -0.316923    1.034265    10.849871    12.573208    1.803599    -4.089015    0.009422    0.917296    17.539480    -0.312680    3.585021    -17.298239    -0.073489    -7.801988    -0.185305    -1.750023    -1.827798    11.222454    -2.386174    -6.441722    -12.835465    -0.829009    9.119309    15.415189    0.162994    -6.392927    0.068782    0.582429    0.582248    5.024372    0.745585    3.724108    4.882832    3.787341    -2.127744    -2.800581    2.431020    -0.061269    -2.652314    -5.623188    22.987032    0.000000    0.000000    0.000000    -7.665039    0.481226    1.200477    3.648378    7.048017    -1.903820    4.962296    -7.329396    -15.502920    0.000000    0.000000    0.000000    
-12.259957    92.734657    22.588867    1.238047    0.519072    89.071625    -1.614374    -2.674975    0.990187    0.046297    -0.319992    1.028005    10.798794    12.551348    1.816264    -4.037335    0.040213    0.938480    17.517338    -0.311875    3.608245    -17.284454    -0.056800    -7.812840    -0.208454    -1.759281    -1.832475    11.279558    -2.396086    -6.412089    -12.856348    -0.843285    9.149985    15.437296    0.159039    -6.409912    0.064208    0.595699    0.578642    5.039990    0.760211    3.743506    4.885158    3.780229    -2.133009    -2.793838    2.428723    -0.129467    -2.642678    -5.613739    23.040462    0.000000    0.000000    0.000000    -7.667247    0.479068    1.236940    3.659087    7.040673    -1.934376    4.958508    -7.329540    -15.515662    0.000000    0.000000    0.000000    
-12.259949    92.735634    22.590038    1.241594    0.519249    89.068970    -1.614262    -2.666782    1.006880    0.022577    -0.343813    1.044554    10.861657    12.570549    1.801726    -4.069992    0.019142    0.917685    17.556898    -0.313827    3.574867    -17.314148    0.034184    -7.808969    -0.173315    -1.795007    -1.833430    11.187471    -2.427910    -6.430977    -12.807229    -0.826564    9.127248    15.414465    0.172846    -6.410674    0.061171    0.583061    0.581248    5.017736    0.746607    3.739971    4.881803    3.784996    -2.134840    -2.790071    2.416005    -0.084393    -2.659594    -5.605310    23.016094    0.000000    0.000000    0.000000    -7.664021    0.480515    1.237656    3.652490    7.050660    -1.894005    4.975399    -7.344029    -15.550632    0.000000    0.000000    0.000000    
-12.258458    92.737175    22.592785    1.243500    0.513096    89.076576    -1.596266    -2.679198    1.001772    -0.002091    -0.328474    1.039158    10.898009    12.567652    1.811402    -4.114216    0.009734    0.919564    17.567326    -0.319532    3.578592    -17.316839    0.035314    -7.810376    -0.184931    -1.798018    -1.824681    11.150370    -2.428256    -6.423354    -12.801980    -0.836548    9.140721    15.429872    0.180404    -6.417468    0.052998    0.575331    0.584279    5.025148    0.739053    3.735411    4.890330    3.785167    -2.135972    -2.785907    2.424411    -0.111154    -2.671794    -5.611514    23.023130    0.000000    0.000000    0.000000    -7.654966    0.490300    1.227817    3.650524    7.036469    -1.894316    4.956530    -7.332763    -15.542679    0.000000    0.000000    0.000000    
-12.256421    92.737732    22.594706    1.251367    0.511933    89.075432    -1.598012    -2.671578    1.007192    -0.004467    -0.349886    1.044491    10.898203    12.569447    1.812752    -4.091726    0.028823    0.925058    17.554745    -0.291806    3.556540    -17.313124    -0.011857    -7.804454    -0.192471    -1.783862    -1.830322    11.128445    -2.413967    -6.433436    -12.787069    -0.830898    9.144384    15.420811    0.168416    -6.420786    0.060714    0.575619    0.571894    4.998457    0.738508    3.737725    4.894074    3.796803    -2.127442    -2.787753    2.417963    -0.102534    -2.708549    -5.617879    23.014318    0.000000    0.000000    0.000000    -7.652464    0.503706    1.261370    3.653410    7.030815    -1.881686    4.975682    -7.346086    -15.591577    0.000000    0.000000    0.000000    
-12.257709    92.738213    22.594446    1.250106    0.513152    89.079613    -1.571788    -2.677831    1.002506    -0.059366    -0.354196    1.039061    10.935674    12.583900    1.815025    -4.108718    0.011606    0.924555    17.580757    -0.297468    3.556489    -17.312658    0.025022    -7.799017    -0.201978    -1.799873    -1.819339    11.132161    -2.429820    -6.428361    -12.752005    -0.834955    9.164392    15.420661    0.180842    -6.426950    0.061019    0.550228    0.569528    4.968833    0.711245    3.717684    4.892511    3.794491    -2.145495    -2.789922    2.415609    -0.096840    -2.678726    -5.609951    23.022526    0.000000    0.000000    0.000000    -7.653814    0.496544    1.243065    3.651452    7.041246    -1.912824    5.004378    -7.344472    -15.553148    0.000000    0.000000    0.000000    
-12.257442    92.739510    22.599480    1.254794    0.503407    89.083252    -1.558702    -2.668463    1.006511    -0.082165    -0.385224    1.042538    11.066712    12.612403    1.808172    -4.270391    -0.005150    0.892060    17.595394    -0.284656    3.523397    -17.317152    0.016459    -7.780459    -0.199046    -1.782714    -1.815475    11.058779    -2.410472    -6.449214    -12.720145    -0.816935    9.169904    15.410015    0.167869    -6.432767    0.061746    0.559229    0.564271    4.974835    0.719959    3.706257    4.904542    3.795475    -2.130876    -2.785470    2.423353    -0.106139    -2.704709    -5.622797    23.010090    0.000000    0.000000    0.000000    -7.638474    0.509796    1.243992    3.650809    7.027876    -1.919097    4.984416    -7.330430    -15.550642    0.000000    0.000000    0.000000    
-12.258980    92.738564    22.598234    1.254453    0.512773    89.081909    -1.534605    -2.653501    1.000022    -0.146830    -0.433053    1.035029    11.074387    12.652740    1.814693    -4.234279    -0.024751    0.907197    17.613384    -0.261460    3.520616    -17.309513    0.035632    -7.765850    -0.192543    -1.782153    -1.820585    11.047958    -2.407726    -6.433921    -12.670892    -0.806056    9.222444    15.390178    0.148391    -6.458746    0.078286    0.575606    0.551334    4.963683    0.736338    3.717476    4.892529    3.798310    -2.138432    -2.784764    2.416440    -0.103922    -2.696751    -5.612064    23.024076    0.000000    0.000000    0.000000    -7.650518    0.508651    1.255145    3.652302    7.030753    -1.887408    4.970235    -7.342135    -15.583328    0.000000    0.000000    0.000000    
-12.259087    92.739220    22.600697    1.257629    0.512367    89.081619    -1.538780    -2.648054    1.005935    -0.142650    -0.448865    1.040942    11.083070    12.644547    1.813009    -4.245087    -0.008684    0.903338    17.605923    -0.259338    3.500597    -17.303228    0.055516    -7.755318    -0.202529    -1.782130    -1.821062    11.116825    -2.409739    -6.413150    -12.669153    -0.799127    9.212851    15.366705    0.119843    -6.448223    0.126468    0.613927    0.528416    4.983058    0.776481    3.748908    4.895521    3.801767    -2.136078    -2.787502    2.414221    -0.083284    -2.685216    -5.600191    23.005713    0.000000    0.000000    0.000000    -7.648521    0.515517    1.271752    3.655215    7.015939    -1.932380    4.964802    -7.324476    -15.561078    0.000000    0.000000    0.000000    
